# xmcd
#
# Track frame offsets: 
#        150
#        29642
#        50800
#        69721
#        88528
#        108710
#        127582
#        145266
#        151181
#        158797
#        177147
#        198457
#        218837
#        237168
#        274521
#        284313
#
# Disc length: 3923 seconds
#
# Revision: 0
# Processed by: cddbd v1.5.2PL0 Copyright (c) Steve Scherf et al.
# Submitted via: ExactAudioCopy v0.99pb3
#
DISCID=e50f5110
DTITLE=Various Artist - Terrace Industry (M Squared Box 1980-1983) [CD2]
DYEAR=2010
DGENRE=Ascension
TTITLE0=The Makers Of The Dead Travel Fast - Dead Travel Fast
TTITLE1=The Makers Of The Dead Travel Fast - Tael Of A Saeghors
TTITLE2=The Makers Of The Dead Travel Fast - The Dumbwaiters
TTITLE3=The Makers Of The Dead Travel Fast - No Threat
TTITLE4=The Makers Of The Dead Travel Fast - Copper Hats
TTITLE5=The Makers Of The Dead Travel Fast - Lovers Of Observatory Tim
TTITLE5=e
TTITLE6=The Makers Of The Dead Travel Fast - Speed
TTITLE7=The Makers Of The Dead Travel Fast - Twisting Toxic Forms
TTITLE8=The Makers Of The Dead Travel Fast - Fibrephone
TTITLE9=The Makers Of The Dead Travel Fast - Lumber
TTITLE10=The Makers Of The Dead Travel Fast - Sea Heads
TTITLE11=The Makers Of The Dead Travel Fast - We Sway In Our Boats
TTITLE12=The Makers Of The Dead Travel Fast - Fighting Baboons
TTITLE13=A Cloakroom Assembly - Fossil Crash Sleeping
TTITLE14=A Cloakroom Assembly - Trace And Rumble
TTITLE15=A Cloakroom Assembly - Trace And Tumble
EXTD=
EXTT0=
EXTT1=
EXTT2=
EXTT3=
EXTT4=
EXTT5=
EXTT6=
EXTT7=
EXTT8=
EXTT9=
EXTT10=
EXTT11=
EXTT12=
EXTT13=
EXTT14=
EXTT15=
PLAYORDER=
